<svg xmlns="http://www.w3.org/2000/svg" version="1.1" xmlns:xlink="http://www.w3.org/1999/xlink" xmlns:svgjs="http://svgjs.dev/svgjs" width="1000" height="1000" viewBox="0 0 1000 1000"><rect width="1000" height="1000" fill="#1ebbd7"></rect><g transform="matrix(0.7,0,0,0.7,149.5757603538998,409.8360075618745)"><svg viewBox="0 0 396 102" data-background-color="#1ebbd7" preserveAspectRatio="xMidYMid meet" height="257" width="1000" xmlns="http://www.w3.org/2000/svg" xmlns:xlink="http://www.w3.org/1999/xlink"><g id="tight-bounds" transform="matrix(1,0,0,1,0.2399984283652543,0.12132978704170228)"><svg viewBox="0 0 395.52 101.75734042591662" height="101.75734042591662" width="395.52"><g><svg viewBox="0 0 549.6955029534291 141.42281660757368" height="101.75734042591662" width="395.52"><g transform="matrix(1,0,0,1,154.17550295342912,43.70170306933808)"><svg viewBox="0 0 395.52 54.01941046889751" height="54.01941046889751" width="395.52"><g id="textblocktransform"><svg viewBox="0 0 395.52 54.01941046889751" height="54.01941046889751" width="395.52" id="textblock"><g><svg viewBox="0 0 395.52 54.01941046889751" height="54.01941046889751" width="395.52"><g transform="matrix(1,0,0,1,0,0)"><svg width="395.52" viewBox="4.949999809265137 -31.950000762939453 238.30999755859375 32.54999923706055" height="54.01941046889751" data-palette-color="#ffffff"><path d="M8.9 0L4.95 0 4.95-31.4 15.05-31.4Q20.23-31.4 22.96-28.79 25.7-26.18 25.7-21.7L25.7-21.7Q25.7-17.28 22.96-14.69 20.23-12.1 15.05-12.1L15.05-12.1 8.9-12.1 8.9 0ZM8.9-28.05L8.9-15.5 15.05-15.5Q18.32-15.5 20.01-17.18 21.7-18.85 21.7-21.7L21.7-21.7Q21.7-24.6 20.01-26.33 18.32-28.05 15.05-28.05L15.05-28.05 8.9-28.05ZM41.97-4.15L41.47-4.15 50.77-31.4 54.92-31.4 43.72 0 39.67 0 28.57-31.4 32.72-31.4 41.97-4.15ZM82.77 0.6L82.77 0.6Q79.62 0.6 76.99-0.54 74.37-1.68 72.77-3.9 71.17-6.13 71.12-9.4L71.12-9.4 74.92-9.4Q74.92-7.2 75.99-5.79 77.07-4.38 78.84-3.69 80.62-3 82.72-3L82.72-3Q84.99-3 86.67-3.73 88.34-4.45 89.26-5.64 90.17-6.83 90.17-8.25L90.17-8.25Q90.17-10.25 88.94-11.49 87.72-12.73 85.32-13.5L85.32-13.5 79.77-15.45Q75.87-16.85 73.87-18.65 71.87-20.45 71.87-23.7L71.87-23.7Q71.87-27.35 74.68-29.65 77.49-31.95 82.67-31.95L82.67-31.95Q87.47-31.95 90.17-29.74 92.87-27.53 93.27-23.8L93.27-23.8 89.42-23.8Q89.04-25.98 87.38-27.19 85.72-28.4 82.67-28.4L82.67-28.4Q79.57-28.4 77.84-27.03 76.12-25.65 76.12-23.55L76.12-23.55Q76.12-21.83 77.2-20.81 78.29-19.8 80.62-19L80.62-19 87.12-16.75Q90.49-15.63 92.46-13.6 94.42-11.58 94.42-8.35L94.42-8.35Q94.42-5.85 93.08-3.83 91.74-1.8 89.14-0.6 86.54 0.6 82.77 0.6ZM108.24-12.9L97.04-31.4 101.74-31.4 110.74-16.15 109.74-16.15 118.89-31.4 123.54-31.4 112.19-12.9 112.19 0 108.24 0 108.24-12.9ZM137.71 0.6L137.71 0.6Q134.56 0.6 131.94-0.54 129.31-1.68 127.71-3.9 126.11-6.13 126.06-9.4L126.06-9.4 129.86-9.4Q129.86-7.2 130.94-5.79 132.01-4.38 133.79-3.69 135.56-3 137.66-3L137.66-3Q139.94-3 141.61-3.73 143.29-4.45 144.2-5.64 145.11-6.83 145.11-8.25L145.11-8.25Q145.11-10.25 143.89-11.49 142.66-12.73 140.26-13.5L140.26-13.5 134.71-15.45Q130.81-16.85 128.81-18.65 126.81-20.45 126.81-23.7L126.81-23.7Q126.81-27.35 129.63-29.65 132.44-31.95 137.61-31.95L137.61-31.95Q142.41-31.95 145.11-29.74 147.81-27.53 148.21-23.8L148.21-23.8 144.36-23.8Q143.99-25.98 142.33-27.19 140.66-28.4 137.61-28.4L137.61-28.4Q134.51-28.4 132.79-27.03 131.06-25.65 131.06-23.55L131.06-23.55Q131.06-21.83 132.15-20.81 133.24-19.8 135.56-19L135.56-19 142.06-16.75Q145.44-15.63 147.4-13.6 149.36-11.58 149.36-8.35L149.36-8.35Q149.36-5.85 148.03-3.83 146.69-1.8 144.09-0.6 141.49 0.6 137.71 0.6ZM164.26-28.05L153.14-28.05 153.14-31.4 177.59-31.4 177.59-28.05 166.41-28.05 167.28-28.95 167.28 0 163.39 0 163.39-28.95 164.26-28.05ZM202.21 0L182.86 0 182.86-31.4 202.21-31.4 202.21-28.05 186.76-28.05 186.76-17.5 201.31-17.5 201.31-14.15 186.76-14.15 186.76-3.4 202.21-3.4 202.21 0ZM211.01 0L211.01-31.4 216.61-31.4 227.41-9.7 227.01-9.7 237.81-31.4 243.26-31.4 243.26 0 239.31 0 239.31-27.35 240.01-27.35 228.51-3.95 225.91-3.95 214.46-27.2 214.91-27.2 214.91 0 211.01 0Z" opacity="1" transform="matrix(1,0,0,1,0,0)" fill="#ffffff" class="wordmark-text-0" data-fill-palette-color="primary" id="text-0"></path></svg></g></svg></g></svg></g></svg></g><g><svg viewBox="0 0 141.42281660757368 141.42281660757368" height="141.42281660757368" width="141.42281660757368"><g><svg xmlns="http://www.w3.org/2000/svg" xmlns:xlink="http://www.w3.org/1999/xlink" version="1.1" x="0" y="0" viewBox="34 34 32 32" style="enable-background:new 0 0 100 100;" xml:space="preserve" height="141.42281660757368" width="141.42281660757368" class="icon-icon-0" data-fill-palette-color="accent" id="icon-0"><g fill="#ffffff" data-fill-palette-color="accent"><path d="M42.3 38.7c-0.7 0.5-1.4 1-2 1.7-0.6 0.6-1.2 1.3-1.7 2-0.4 0.6-0.2 1.3 0.3 1.7 0.2 0.1 0.5 0.2 0.7 0.2 0.4 0 0.8-0.2 1-0.5 0.4-0.6 0.9-1.1 1.4-1.6 0.5-0.5 1.1-1 1.7-1.4 0.6-0.4 0.7-1.2 0.3-1.7C43.7 38.5 42.9 38.3 42.3 38.7z" fill="#ffffff" data-fill-palette-color="accent"></path><path d="M42.1 57.9c-0.5-0.5-1-1.1-1.4-1.6-0.4-0.6-1.2-0.7-1.7-0.3-0.6 0.4-0.7 1.2-0.3 1.7 0.5 0.7 1.1 1.4 1.7 2 0.6 0.6 1.3 1.2 2 1.7 0.2 0.1 0.5 0.2 0.7 0.2 0.4 0 0.8-0.2 1-0.6 0.4-0.6 0.2-1.3-0.3-1.7C43.1 58.8 42.6 58.4 42.1 57.9z" fill="#ffffff" data-fill-palette-color="accent"></path><path d="M59.3 56.2c-0.4 0.6-0.9 1.1-1.4 1.6-0.5 0.5-1.1 1-1.7 1.4-0.6 0.4-0.7 1.2-0.3 1.7 0.2 0.4 0.6 0.6 1 0.6 0.2 0 0.5-0.1 0.7-0.2 0.7-0.5 1.4-1 2-1.7 0.6-0.6 1.2-1.3 1.7-2 0.4-0.6 0.2-1.3-0.3-1.7C60.5 55.5 59.7 55.7 59.3 56.2z" fill="#ffffff" data-fill-palette-color="accent"></path><path d="M57.9 42.1c0.5 0.5 1 1.1 1.4 1.6 0.2 0.4 0.6 0.5 1 0.5 0.2 0 0.5-0.1 0.7-0.2 0.6-0.4 0.7-1.2 0.3-1.7-0.5-0.7-1.1-1.4-1.7-2-0.6-0.6-1.3-1.2-2-1.7-0.6-0.4-1.3-0.2-1.7 0.3-0.4 0.6-0.2 1.3 0.3 1.7C56.9 41.2 57.4 41.6 57.9 42.1z" fill="#ffffff" data-fill-palette-color="accent"></path><path d="M50 34c-2 0-3.5 1.6-3.5 3.6s1.6 3.6 3.5 3.6 3.5-1.6 3.5-3.6S52 34 50 34zM50 38.6c-0.6 0-1-0.5-1-1.1s0.5-1.1 1-1.1 1 0.5 1 1.1S50.6 38.6 50 38.6z" fill="#ffffff" data-fill-palette-color="accent"></path><path d="M50 58.9c-2 0-3.5 1.6-3.5 3.6S48 66 50 66s3.5-1.6 3.5-3.6S52 58.9 50 58.9zM50 63.5c-0.6 0-1-0.5-1-1.1 0-0.6 0.5-1.1 1-1.1s1 0.5 1 1.1C51 63 50.6 63.5 50 63.5z" fill="#ffffff" data-fill-palette-color="accent"></path><path d="M41.1 50c0-2-1.6-3.6-3.5-3.6S34 48 34 50s1.6 3.6 3.5 3.6S41.1 52 41.1 50zM37.5 51.1c-0.6 0-1-0.5-1-1.1s0.5-1.1 1-1.1 1 0.5 1 1.1S38.1 51.1 37.5 51.1z" fill="#ffffff" data-fill-palette-color="accent"></path><path d="M62.5 46.4c-2 0-3.5 1.6-3.5 3.6s1.6 3.6 3.5 3.6S66 52 66 50 64.4 46.4 62.5 46.4zM62.5 51.1c-0.6 0-1-0.5-1-1.1s0.5-1.1 1-1.1c0.6 0 1 0.5 1 1.1S63 51.1 62.5 51.1z" fill="#ffffff" data-fill-palette-color="accent"></path></g></svg></g></svg></g></svg></g><defs></defs></svg><rect width="395.52" height="101.75734042591662" fill="none" stroke="none" visibility="hidden"></rect></g></svg></g></svg>